<svg xmlns="http://www.w3.org/2000/svg" width="255" height="255" fill="none"><path stroke="#fff" stroke-linecap="round" stroke-width="7" d="M57.5 40.5v23"/><path fill="#b6d3ff" d="M246 155c0 57.438-52.83 82-118 82S10 212.438 10 155 62.83 33 128 33s118 64.562 118 122"/><circle cx="57.5" cy="29.5" r="12.5" fill="#b6d3ff"/><path fill="#0b53bf" d="M42 164c0-19.33 15.67-35 35-35h102c19.33 0 35 15.67 35 35s-15.67 35-35 35H77c-19.33 0-35-15.67-35-35"/><circle cx="87.5" cy="164.5" r="17.5" fill="#fff"/><circle cx="169.5" cy="164.5" r="17.5" fill="#fff"/><path stroke="#fff" stroke-linecap="round" stroke-width="5" d="M117.438 178.677s2.515 3.764 13.076 3.764 13.077-3.764 13.077-3.764"/><path fill="#0b53bf" d="M127.5 117c17.397 0 31.5-14.103 31.5-31.5S144.897 54 127.5 54 96 68.103 96 85.5s14.103 31.5 31.5 31.5"/><path fill="#fff" d="M133.17 62.564v4.056c8.091 2.441 14.016 9.962 14.016 18.88 0 8.919-5.925 16.439-14.017 18.881v4.055c10.317-2.52 17.956-11.832 17.956-22.936s-7.639-20.416-17.955-22.936M107.812 85.5c0-8.918 5.926-16.439 14.018-18.88v-4.056c-10.317 2.52-17.955 11.832-17.955 22.936s7.638 20.416 17.955 22.936v-4.055c-8.092-2.422-14.018-9.962-14.018-18.881"/><path fill="#fff" d="M135.965 89.89c0-8.052-12.619-4.744-12.619-9.194 0-1.594 1.279-2.618 3.72-2.618 2.914 0 3.918 1.418 4.233 3.327h4.017c-.359-3.584-2.415-5.847-5.848-6.52v-3.166h-3.937v3.052c-3.76.479-6.123 2.669-6.123 5.925 0 8.092 12.639 5.06 12.639 9.43 0 1.655-1.594 2.757-4.292 2.757-3.524 0-4.685-1.555-5.119-3.701h-3.917c.253 3.925 2.674 6.382 6.812 6.995v3.104h3.937v-3.063c4.038-.522 6.497-2.87 6.497-6.327"/></svg>